<svg xmlns="http://www.w3.org/2000/svg" width="75" height="75" viewBox="0 0 850.39 850.39"><path fill="none" d="M8.778-3136.846h2812.92V7205.582H8.78z"/><path d="M154.02 459.256c-1.26-12.605-.835-25.395-.873-38.103-.05-18.314 2.884-36.21 7.668-53.878 4.006-14.83 7.043-29.937 11.395-44.655 2.084-7.044 6.222-13.48 9.436-20.192 10.676-22.328 25.19-42.175 40.773-61.157 12.458-15.18 27.206-27.808 45.05-36.876 16.32-8.3 32.27-17.382 49.55-23.524 15.05-5.34 30.135-11.13 45.69-14.366 18.22-3.793 36.943-5.32 55.5-7.28 10.426-1.1 20.97-1.078 31.462-1.57 16.876-.204 33.862-.82 50.364 3.127 12.532 3.002 24.94 6.98 36.93 11.72 16.244 6.426 31.82 14.46 46.04 24.733 16.02 11.57 30.656 24.52 41.772 41.214 4.784 7.176 10.918 13.464 16.575 20.046 5.605 6.516 10.44 13.42 13.853 21.418 5.892 13.81 12.54 27.296 18.358 41.126 7.213 17.162 12.217 35.05 15.562 53.35 3.097 16.927 6.574 33.854 8.343 50.943 2.522 24.454 2.83 48.99-1.682 73.41-3.235 17.564-10.39 33.494-18.74 49.013-5.664 10.515-11.475 20.94-17.382 31.323-1.974 3.492-4.417 6.72-6.625 10.096-7.337 11.212-14.57 22.32-25.562 30.715-8.783 6.706-16.4 14.945-24.478 22.562-8.05 7.594-17.97 12.092-27.64 17.06-15.988 8.217-33.246 13.272-49.762 20.17-13.436 5.612-27.823 7.197-42.007 9.648-18.856 3.25-37.838 4.168-56.937 3.214-19.87-1.006-39.072-5.518-58.273-10.39-21.462-5.438-41.78-13.273-60.797-24.728-9.715-5.84-20.03-10.72-30.29-15.584-14.234-6.75-26.898-15.827-39.533-25.08-14.345-10.514-27.405-22.495-39.9-35.013-9.01-9.025-15.835-19.987-20.626-31.845-5.804-14.36-11.938-28.77-15.768-43.716-3.916-15.29-5.868-31.184-7.445-46.93z"/><path fill="#999" stroke="#1D1D1B" stroke-width=".5" stroke-linecap="round" stroke-linejoin="round" d="M687.677 509.472c-2.946 10.38-7.487 20.42-12.257 30.14-4.12 8.41-9.57 16.163-14.436 24.204-.694 1.152-1.603 2.227-2.045 3.463-4.276 11.933-12.406 21.522-19.406 31.772-3.19 4.666-7.354 8.697-11.282 12.818-3.448 3.617-7.036 7.125-10.817 10.39-9.414 8.136-18.762 16.376-28.582 24.02-4.165 3.24-9.34 5.278-14.23 7.493-10.853 4.918-21.472 10.41-32.953 13.904-4.88 1.484-9.525 3.742-14.258 5.71-15.15 6.31-31.24 8.806-47.323 10.903-12.686 1.654-25.497 2.746-38.285 3.068-22.482.578-44.552-2.795-66.176-9.02-11.14-3.205-22.518-5.752-33.342-9.803-9.67-3.62-18.784-8.768-28.02-13.494-11.638-5.942-22.942-12.552-34.75-18.11-13.722-6.47-26.163-14.846-37.918-24.2-12.504-9.95-24.595-20.45-36.468-31.157-9.37-8.453-16.466-19.023-21.29-30.473-7.105-16.834-13.687-34.043-18.57-51.63-5.564-20.06-6.923-40.915-6.48-63.253-.83-19.25.16-39.838 5.253-60.04 3.777-15.025 8.026-29.935 11.726-44.975 3.91-15.894 11.98-29.878 20.39-43.526 8.37-13.59 17.645-26.71 27.48-39.292 12.567-16.097 27.564-29.474 46.02-39.05 17.998-9.347 35.745-19.267 55.05-25.554 16.77-5.458 33.13-12.465 51.048-14.132 16.4-1.52 32.666-4.73 49.074-5.723 17.41-1.05 34.933-.807 52.388-.33 29.292.807 55.54 11.792 81.163 25.005 15.137 7.8 28.663 17.764 41.305 28.917 5.988 5.283 10.884 11.843 16.052 18.013 8.07 9.648 15.868 19.526 23.946 29.175 4.917 5.876 8.432 12.503 11.496 19.466 5.5 12.518 11.378 24.867 16.746 37.43 7.473 17.47 12.67 35.68 15.972 54.36 3.293 18.622 6.675 37.273 8.676 56.055 2.78 26.006 2.315 52.102-4.9 77.457z"/><path stroke="#1D1D1B" stroke-width=".5" stroke-linecap="round" stroke-linejoin="round" d="M610.044 318.78c6.15 13.706 7.147 27.78 4.48 42.586-2.354 13.104-7.168 24.536-16.878 33.724-1.24 1.167-2.548 2.31-3.958 3.258-17.55 11.73-36.69 16.962-57.727 13.455-6.356-1.063-12.5-3.315-18.79-4.79-1.337-.315-3.14-.037-4.342.64-8.182 4.614-16.48 9.068-24.308 14.248-5.67 3.752-10.552 8.68-15.98 12.827-13.4 10.22-26.994 20.188-40.352 30.465-9.198 7.074-18.007 14.643-27.196 21.73-6.86 5.295-13.934 10.334-21.125 15.166-3.515 2.363-7.506 4.025-11.297 5.96-2.064 1.056-4.198 1.96-6.243 3.052-1.9 1.016-2.348 2.496-2.307 4.81.384 22.165-3.68 43.075-22.25 57.544-18.073 14.072-35.757 18.783-55.878 9.193-3.146-1.496-3.448-3.006-1.694-6.096 6.202-10.88 15.783-18.913 23.83-28.216 2.82-3.262 3.907-6.107 2.755-10.438-1.945-7.29-3.045-14.824-4.77-22.19-.31-1.315-1.71-3-2.95-3.38-10.743-3.268-21.542-6.316-32.38-9.268-.91-.246-2.567.44-3.198 1.234-5.922 7.453-11.63 15.084-17.544 22.553-2.34 2.957-5.127 5.56-7.55 8.463-3.12 3.746-6.01 7.686-9.14 11.422-.853 1.012-2.326 2.28-3.356 2.148-1.063-.133-2.245-1.68-2.795-2.87-.75-1.634-1.308-3.5-1.337-5.288-.277-15.643-.505-31.256 4.13-46.518 5.08-16.75 15.887-28.557 30.792-37.008 4.135-2.348 8.42-4.463 12.737-6.477 16.178-7.523 31.455-4.393 46.012 4.44 2.496 1.513 3.806 1.452 6.31-.013 5.987-3.516 12.216-6.723 18.62-9.37 18.087-7.483 34.31-18.16 50.565-28.806 17.768-11.65 35.554-23.29 53.127-35.248 9.178-6.245 17.942-13.127 26.803-19.833.9-.683 1.677-2.158 1.698-3.28.23-13.472 4.955-25.55 11.305-37.127 2.17-3.954 4.748-7.698 6.963-11.637 4.364-7.754 10.795-13.48 17.906-18.585 4.585-3.302 9.466-5.298 15.306-5.115 3.25.103 6.506-.99 9.784-1.29 2.525-.23 5.146-.39 7.627.02 2.82.47 3.595 2.546 2.066 4.887-6.217 9.48-12.537 18.886-18.732 28.38-.583.896-.894 2.306-.68 3.324 2.156 9.774 4.35 19.547 6.8 29.255.45 1.804 1.817 3.704 3.31 4.878 7.67 6.045 15.527 11.87 23.34 17.756.76.58 1.602 1.058 1.92 1.263 7.28-11.32 14.02-22.51 21.486-33.2 5.723-8.197 12.33-15.776 18.6-23.59 2.283-2.84 4.985-2.384 6.484.953z"/><path fill="#F2F2F2" stroke="#1D1D1B" stroke-width=".5" stroke-linecap="round" stroke-linejoin="round" d="M606.75 370.958c3.493-11.21 4.563-22.78 3.294-34.42-.45-4.18-2.363-8.2-3.81-12.948-2.467 2.935-4.225 4.96-5.923 7.037-11.28 13.707-22.01 27.78-29.637 43.965-4.113 8.73-5.31 8.894-13.07 2.49-.19-.156-.368-.332-.553-.48-7.42-5.6-14.694-11.402-22.32-16.678-2.785-1.922-4.276-4.043-4.978-7.175-2.4-10.604-5.044-21.148-7.266-31.787-.354-1.717.494-4.087 1.55-5.636 4.52-6.662 9.378-13.09 14-19.685 1.063-1.52 1.69-3.347 2.828-5.658-4.26.64-7.782 1.82-11.187 1.55-6.417-.516-11.238 2.244-16.074 5.817-5.797 4.278-10.61 9.35-14.23 15.577-2.636 4.55-5.537 8.945-8.025 13.567-5.14 9.56-8.993 19.65-9.148 30.604-.06 4.153-1.352 7.16-4.32 9.377-10.277 7.676-20.533 15.4-31.137 22.613-17.16 11.69-34.52 23.09-51.925 34.42-15.247 9.932-30.554 19.76-47.452 26.893-7.594 3.206-14.705 7.577-21.9 11.667-2.562 1.45-4.22 1.027-6.538-.613-14.22-10.012-29.32-12.86-45.484-4.766-3.722 1.857-7.49 3.63-11.08 5.715-11.057 6.406-19.825 15.078-24.898 26.95-4.966 11.638-6.376 24.01-6.465 36.562-.025 4.338 0 8.676 0 13.62.935-.75 1.337-.98 1.618-1.315 9.7-11.773 19.508-23.47 29.033-35.387 5.687-7.11 5.432-7.48 12.79-4.438.33.137.727.115 1.078.22 10.426 3.036 20.852 6.08 31.28 9.128 2.386.688 4.073 1.928 4.58 4.63 1.87 9.954 3.982 19.862 5.728 29.83.284 1.66-.28 4.017-1.358 5.272-5.077 5.934-10.574 11.512-15.73 17.39-3.634 4.142-6.956 8.56-10.42 12.862.193.523.38 1.055.58 1.588 5.336.984 10.64 2.277 16.02 2.87 7.798.872 14.514-2.978 21.255-6.017 13.782-6.21 23.178-16.965 27.59-31.137 3.075-9.923 5.04-20.415 2.883-31.07-.2-.99.365-2.64 1.152-3.228 3.566-2.654 7.243-5.2 11.064-7.475 3.552-2.117 7.675-3.375 10.954-5.805 17.965-13.295 36.35-26.002 53.228-40.787 10.16-8.91 21.76-16.168 32.607-24.305 7.613-5.715 14.9-11.862 22.617-17.417 5.146-3.707 10.61-7.044 16.26-9.92 3.314-1.688 6.253-5.004 10.64-3.926 2.73.676 5.464 1.336 8.137 2.165 14.05 4.32 28.258 5.912 42.516 1.48 6.24-1.944 12.33-4.6 18.15-7.585 10.846-5.58 17.89-14.635 21.5-26.2z"/></svg>
