<svg xmlns="http://www.w3.org/2000/svg" width="75" height="75" viewBox="0 0 850.39 850.39"><path fill="none" d="M8.778-3136.846h2812.92V7205.582H8.78z"/><path fill-rule="evenodd" clip-rule="evenodd" d="M168.23 407.445c0-8.014-.438-16.06.145-24.03.432-5.828 1.57-11.773 3.496-17.278 5.262-15 10.76-29.94 16.83-44.625 4.455-10.766 9.486-21.37 15.163-31.537 4.853-8.702 10.724-16.89 16.642-24.94 8.453-11.47 17.264-22.683 26.117-33.85 3.43-4.324 7.317-8.305 11.15-12.295 3.672-3.822 7.354-7.675 11.382-11.097 4.736-4.036 9.472-8.336 14.884-11.268 11.58-6.264 23.59-11.735 35.437-17.497 1.377-.665 2.94-.94 4.293-1.64 14.075-7.318 28.952-12.723 44.108-17.063 13.45-3.85 27.276-6.43 41.01-9.238 21.357-4.36 43.036-5.846 64.748-4.882 13.297.59 26.588 2.786 39.045 7.802 16.72 6.73 33.376 13.644 49.706 21.23 7.528 3.496 14.512 8.372 21.23 13.325 9.386 6.914 18.873 13.874 27.295 21.883 18.29 17.38 34.87 36.386 45.37 59.6 10.38 22.96 20.7 45.99 28.228 70.15 4.052 13.026 8.546 25.942 13.438 38.676 4.246 11.047 5.63 22.41 5.498 34.054-.14 10.846.327 21.795-1.073 32.496-1.414 10.786-4.712 21.33-7.34 31.945-1.213 4.915-3.142 9.667-4.122 14.62-1.812 9.13-5.638 17.403-9.533 25.764-4.666 10-8.492 20.396-13.064 30.45-3.258 7.18-6.827 14.256-10.816 21.044-5.848 9.938-11.937 19.77-18.407 29.317-6.602 9.73-12.745 19.964-22.574 26.993-8.99 6.424-17.49 13.508-27.67 18.26-10.248 4.774-19.953 10.716-30.187 15.514-10.553 4.93-21.424 9.19-32.226 13.562-5.023 2.028-10.194 3.692-15.335 5.42-18.33 6.174-37.18 5.388-56.053 4.074-15.514-1.09-31.02-3.025-46.536-3.143-26.646-.21-51.726-6.818-76.377-16.072-10.138-3.81-20.457-7.154-30.566-11.035-10.315-3.958-19.32-10.14-28.158-16.743-15.358-11.462-26.735-26.51-38.567-41.184-3.407-4.223-7.05-8.32-9.932-12.878-6.167-9.736-12.104-19.636-17.79-29.66-11.978-21.104-20.307-43.866-28.403-66.597-4.312-12.107-6.193-25.117-8.72-37.81-1.304-6.562-1.895-13.305-2.276-20-.375-6.586-.083-13.21-.083-19.816h.594z"/><path fill="#EDC483" d="M250.73 234.455c4.355-5.387 9.438-10.2 14.343-15.092 6.074-6.06 11.744-12.65 19.44-16.812 9.3-5.032 18.61-10.08 28.103-14.76 7.277-3.588 14.76-6.788 22.3-9.846 8.947-3.63 17.916-7.228 27.076-10.278 20.99-6.945 42.658-11.008 64.51-13.91 10.74-1.423 21.605-1.777 32.415-2.626 19.475-.312 38.163 2.987 56.533 9.514 17.06 6.074 33.667 13.14 49.29 22.115 10.47 6.016 19.928 13.81 29.74 20.953 15.212 11.05 27.558 25.06 39.11 39.663 10.568 13.358 17.57 28.826 24.77 44.286 10.837 23.27 18.01 47.854 27.862 71.455 6.243 14.972 8.785 30.992 10.83 47.054 2.152 16.983 1.735 33.91-1.67 50.623-1.946 9.542-5.316 18.795-7.985 28.202-1.706 6.003-2.867 12.204-5.075 18.01-2.662 7.02-6.308 13.683-9.323 20.585-3.193 7.32-5.997 14.816-9.274 22.08-2.867 6.335-5.67 12.763-9.352 18.61-9.812 15.658-19.828 31.21-30.34 46.41-3.42 4.926-8.354 8.946-13.082 12.783-10.484 8.48-22.143 15.086-34.34 20.834-12.466 5.875-24.415 12.933-37.137 18.157-17.81 7.334-35.65 15.24-55.484 15.595-13.803.24-27.536-.49-41.305-1.997-12.742-1.4-25.64-1.55-38.474-1.833-20.755-.49-40.618-5.183-60.064-11.992-13.917-4.856-27.884-9.55-41.54-15.043-6.937-2.774-13.556-6.66-19.764-10.887-14.76-10.038-26.794-22.986-37.667-37.052-6.427-8.297-13.372-16.225-19.29-24.86-5.238-7.653-9.43-16.035-13.967-24.147-11.914-21.294-20.458-44.067-28.493-66.94-4.382-12.45-6.074-25.858-8.764-38.897-3.432-16.58-1.57-33.363-1.45-50.077.148-18.334 5.19-35.338 12.53-51.81 7.56-17.012 14.773-34.185 23.1-50.82 4.218-8.453 10.29-16.035 15.962-23.687 8.416-11.373 17.03-22.58 25.93-33.565z"/><g><path d="M382.868 303.49c-4.247 4.75-8.017 9.765-8.898 16.406-2.29 17.182-2.305 34.38-.218 51.578 1.52 12.522 4.498 24.713 10.185 35.973 4.975 9.86 10.694 19.333 16.122 28.952 1.196 2.11 2.07 4.73 3.857 6.1 3.98 3.05 3.51 6.746 2.977 10.88-1.885 14.957-3.786 29.922-5.33 44.92-1.643 15.944-2.145 32.033-4.458 47.873-4.635 31.718-4.166 63.68-6.148 95.535-.186 2.903.93 4.004 3.6 4.65 12.434 3.018 24.818 6.246 37.25 9.295 2.954.72 6.012 1.093 9.53 1.716 0-1.878.008-3.343-.008-4.8-1.012-62.15 2.217-124.22 4.102-186.312.234-7.596.59-15.742 5.775-21.906 4.546-5.436 9.69-10.597 15.37-14.77 15.054-11.026 29.34-22.61 40.794-37.657 5.187-6.82 5.713-13.646 4.896-21.234-.34-3.17-2.62-5.16-5.68-4.197-7.967 2.507-15.515 5.962-21.67 11.94-1.028.995-3.074 2.297-3.818 1.9-1.222-.638-2.427-2.563-2.443-3.963-.09-4.716.566-9.416.574-14.116.056-18.193.16-36.402-.228-54.587-.113-5.145-1.4-10.403-3-15.337-1.627-5.015-6.384-6.512-10.833-3.753-8.292 5.13-11.867 13.906-12.798 22.53-1.335 12.376-.187 25.02-.08 37.558.023 4.44.29 8.915-.058 13.34-.113 1.398-1.868 2.693-2.872 4.027-1.043-1.31-2.216-2.556-3.082-3.972-.348-.583-.016-1.578-.04-2.386-.308-19.26-.315-38.53-1.044-57.774-.396-10.75-1.35-21.566-5.735-31.637-.605-1.4-2.086-3.462-3.048-3.406-1.48.09-3.584 1.464-4.15 2.815-3.786 9.044-7.272 18.21-10.767 27.383-.364.93-.332 2.135-.138 3.163 2.354 13.525 1.53 27.09.55 40.666-.396 5.493-.323 11.034-.906 16.502-.145 1.4-1.94 2.63-2.976 3.932-1.05-1.197-2.225-2.306-3.098-3.632-.364-.566-.09-1.57-.048-2.378.64-15.176 1.885-30.36 1.658-45.535-.09-6.172-2.92-12.482-5.307-18.396-1.87-4.66-5.105-5.396-9.085-2.208-5.8 4.634-8.583 11.033-7.563 18.523.752 5.452 2.59 10.783 3.163 16.244.922 8.664 1.318 17.392 1.577 26.112.033 1.285-1.94 2.636-2.985 3.955-.914-1.416-2.645-2.863-2.597-4.23.42-11.52-.6-22.853-3.567-34-1.003-3.778-1.812-7.588-3.017-11.293-.713-2.23-2.468-3.013-4.288-.99zm-14.408 13.73c1.383-7.653 5.735-13.76 11.244-18.72 2.16-1.94 6.342-1.667 9.602-2.386.146.364.3.72.453 1.092 1.035-2.168 2.07-4.344 3.113-6.512 2.42-4.99 6.617-7.67 11.778-9.068 4.272-1.157 7.24 1.125 9.927 3.964.906.946 1.626 2.07 2.395 3.074 3.648-7.92 7.086-15.507 10.662-23.03 1.335-2.792 3.39-4.71 6.836-4.91 6.188-.373 8.5.646 10.176 6.697 2.24 8 3.77 16.196 5.573 24.31.25 1.14.388 2.305.752 4.44 1.594-2.427 2.46-4.263 3.802-5.638 2.613-2.662 5.137-5.663 8.308-7.45 7.15-4.013 15.24-1.335 18.072 6.325 2.062 5.582 3.52 11.72 3.624 17.635.355 20.482.008 40.973-.057 61.463 0 .388.138.785.3 1.594 4.255-2.234 8.268-4.628 12.498-6.48 3.146-1.4 6.553-2.687 9.918-2.994 5.492-.526 9.69 3.106 10.548 8.485 1.578 9.935.05 18.542-6.568 27.173-11.794 15.346-26.51 27.026-41.773 38.4-5.112 3.826-10.767 8.114-13.582 13.542-3.194 6.18-4.44 13.8-4.86 20.902-1.092 18.016-1.408 36.095-1.756 54.143-.816 43.116-1.472 86.24-2.208 129.356-.024 1.73 0 3.454 0 6.02 4.045 0 7.637-.147 11.204.08 1.245.08 2.427 1.076 3.632 1.643-.712 1.3-1.116 3.153-2.217 3.72-1.415.76-3.438.874-5.08.59-13.525-2.33-27.09-4.392-40.463-7.4-11.14-2.508-22.043-6.1-32.972-9.474-1.553-.47-3.86-2.41-3.786-3.494.243-2.92 2.904-2.476 5.088-2.144.518.08 1.036.22 2.322.478.43-6.828.98-13.47 1.254-20.15.59-14.796.526-29.656 1.683-44.42 1.538-19.722 4.005-39.387 6.01-59.092 1.797-17.69 3.463-35.392 5.267-53.074.494-4.82 1.367-9.61 1.828-14.432.13-1.31-.267-2.888-.946-4.037-10.978-18.66-23.808-36.474-28.726-58.032-2.33-10.176-3.713-20.676-4.587-31.096-1.15-13.71-.746-27.47 1.713-41.093z"/><path fill="#FFF" d="M421.907 340.88c.98-13.574 1.804-27.14-.55-40.666-.194-1.027-.227-2.232.138-3.163 3.494-9.172 6.98-18.338 10.767-27.382.566-1.35 2.67-2.726 4.15-2.815.962-.057 2.442 2.006 3.05 3.406 4.384 10.07 5.34 20.886 5.734 31.636.73 19.245.736 38.514 1.044 57.774.024.81-.308 1.804.04 2.386.866 1.416 2.04 2.662 3.082 3.972 1.004-1.334 2.76-2.63 2.872-4.028.348-4.425.08-8.898.057-13.34-.104-12.538-1.253-25.18.082-37.558.93-8.623 4.506-17.4 12.797-22.53 4.448-2.757 9.205-1.26 10.83 3.754 1.603 4.935 2.89 10.193 3.002 15.337.39 18.185.283 36.394.227 54.587-.01 4.7-.664 9.4-.575 14.116.017 1.4 1.222 3.325 2.443 3.964.744.396 2.79-.906 3.817-1.9 6.156-5.98 13.704-9.434 21.672-11.94 3.058-.964 5.34 1.026 5.68 4.197.816 7.588.29 14.415-4.896 21.234-11.453 15.047-25.74 26.63-40.793 37.657-5.68 4.175-10.824 9.336-15.37 14.77-5.186 6.165-5.54 14.312-5.775 21.907-1.885 62.094-5.113 124.163-4.102 186.313.016 1.456.008 2.92.008 4.798-3.52-.623-6.576-.995-9.53-1.716-12.432-3.05-24.817-6.278-37.25-9.295-2.67-.647-3.786-1.748-3.6-4.65 1.982-31.857 1.513-63.818 6.148-95.536 2.313-15.84 2.815-31.93 4.457-47.874 1.545-14.998 3.446-29.963 5.33-44.92.535-4.134 1.004-7.83-2.976-10.88-1.788-1.368-2.66-3.99-3.858-6.1-5.43-9.62-11.148-19.09-16.123-28.953-5.687-11.26-8.664-23.45-10.185-35.973-2.087-17.198-2.07-34.396.218-51.578.882-6.642 4.65-11.657 8.898-16.405 1.82-2.022 3.576-1.238 4.288.987 1.205 3.705 2.014 7.515 3.017 11.293 2.97 11.147 3.988 22.48 3.567 34-.048 1.367 1.683 2.815 2.597 4.23 1.043-1.318 3.018-2.67 2.985-3.956-.26-8.72-.655-17.448-1.577-26.11-.574-5.46-2.41-10.793-3.163-16.245-1.02-7.49 1.764-13.89 7.563-18.524 3.98-3.187 7.216-2.45 9.084 2.21 2.385 5.913 5.217 12.222 5.306 18.395.227 15.176-1.02 30.36-1.658 45.535-.04.81-.315 1.812.048 2.378.874 1.327 2.047 2.435 3.098 3.632 1.036-1.302 2.832-2.532 2.977-3.932.583-5.464.51-11.005.907-16.498z"/></g></svg>
