<svg xmlns="http://www.w3.org/2000/svg" xmlns:xlink="http://www.w3.org/1999/xlink" width="75" height="75" viewBox="0 0 850.39 850.39"><defs><path id="a" d="M694.482 486.394c-5.376 16.562-11.15 32.9-20.168 47.986-4.906 8.21-8.374 17.27-12.844 25.763-6.355 12.09-14.787 22.707-23.51 33.19-10.25 12.318-21.132 24.004-32.206 35.547-3.307 3.447-7.39 5.848-11.483 7.936-15.496 7.89-29.88 17.73-45.2 25.893-11.417 6.08-23.45 10.81-35.88 14.51-6.232 1.857-12.332 4.18-18.61 5.856-9.39 2.507-19.18 2.67-28.714 4.346-12.326 2.163-24.746 3.356-37.184 2.372-12.535-.995-25.176-.364-37.612-2.474-6.038-1.02-12.19-.776-18.156-1.804-4.786-.826-9.625-1.436-14.384-2.41-11.3-2.31-21.41-7.927-32.16-11.752-15.027-5.35-27.807-14.625-41.454-22.432-8.506-4.872-16.72-10.21-25.198-15.117-9.12-5.28-17.33-11.762-24.366-20.044-7.91-9.306-14.97-18.98-21.59-29.27-11.2-17.403-22.068-34.93-30.98-53.604-8.123-17.03-14.5-34.764-19.473-52.982-2.353-8.603-3.294-17.492-4.634-26.29-1.76-11.507-2.592-23.19-1.54-34.738.975-10.747.612-21.51 2.056-32.283 1.848-13.813 3.86-27.5 8.416-40.633 3.59-10.35 7.943-20.443 12.186-30.55 6.964-16.62 15.306-32.506 25.29-47.53 6.114-9.195 11.628-18.8 17.863-27.91 4.972-7.274 10.552-14.145 17.25-19.98 14.75-12.835 30.7-23.982 47.767-33.465 12.605-7.007 25.51-13.346 39.254-17.928 7.646-2.554 15.025-5.872 22.837-8.024 6.537-1.8 13.25-2.527 19.886-3.715 10.038-1.795 20.07-3.538 30.023-5.856 5.47-1.274 11.23-1.55 16.876-1.76 10.425-.384 20.81-1.747 31.27-1.336 9.42.364 18.67 1.46 27.94 3.59 7.637 1.75 15.45 3.09 23.21 4.315 7.363 1.164 14.123 3.938 21.1 6.127 15.906 4.995 31.03 12.002 46.005 19.188 13.006 6.243 24.396 15.104 33.836 26.183 4.173 4.904 9.136 8.796 14.446 12.2 7.814 5.012 14.036 11.354 20.06 18.52 11.778 13.997 19.767 30.353 29.89 45.35 5.512 8.165 8.092 18.377 11.665 27.796 3.88 10.234 7.456 20.586 11.017 30.94 4.432 12.894 8.235 25.993 10.473 39.446 1.186 7.103 1.155 14.402 1.825 21.602.993 10.602 1.5 21.244 1.663 31.89.143 9.533-1.59 18.83-2.433 28.333-.692 7.804-1.883 15.443-4.305 22.894-.164.513-.02 1.12-.02 1.687"/></defs><clipPath id="b"><use xlink:href="#a" overflow="visible"/></clipPath><g clip-path="url(#b)"><defs><path id="c" d="M8.778-3136.847h2812.92v10342.43H8.778z"/></defs><clipPath id="d"><use xlink:href="#c" overflow="visible"/></clipPath><path clip-path="url(#d)" fill="#B8D7E3" d="M142.937 132.093h572.045v571.785H142.937z"/></g><defs><path id="e" d="M154.37 143.062h549.398v549.4h-549.4z"/></defs><clipPath id="f"><use xlink:href="#e" overflow="visible"/></clipPath><g clip-path="url(#f)"><defs><path id="g" d="M437.784 692.46c-3.166 0-6.25-.12-9.282-.36-4.617-.365-9.35-.513-13.93-.655-7.832-.245-15.928-.494-23.888-1.844-2.89-.486-5.91-.68-8.833-.867-3.05-.198-6.21-.4-9.326-.938-1.77-.304-3.55-.58-5.325-.855-2.995-.466-6.09-.943-9.13-1.568-7.556-1.542-14.606-4.527-21.425-7.414-3.605-1.523-7.332-3.104-11.042-4.425-11.144-3.964-21.145-10.086-30.812-16.007-3.594-2.2-7.312-4.474-11.014-6.597-4.48-2.566-8.938-5.295-13.25-7.934-3.902-2.39-7.942-4.86-11.96-7.19-9.948-5.76-18.117-12.48-24.968-20.543-7.696-9.062-14.82-18.716-21.772-29.52-10.143-15.763-21.75-34.222-31.122-53.858-7.83-16.42-14.43-34.375-19.617-53.373-1.87-6.835-2.87-13.89-3.84-20.715-.276-1.948-.552-3.894-.848-5.832-2.013-13.17-2.52-24.718-1.558-35.304.41-4.514.584-9.14.753-13.61.23-6.13.47-12.47 1.314-18.77 1.97-14.707 3.97-27.954 8.52-41.082 3.19-9.194 7.02-18.294 10.73-27.09l1.51-3.6c7.188-17.152 15.766-33.272 25.495-47.91 2.755-4.146 5.44-8.46 8.04-12.628 3.15-5.06 6.408-10.29 9.842-15.31 5.743-8.402 11.514-15.082 17.638-20.417 14.713-12.807 30.918-24.16 48.16-33.742 14.975-8.323 27.575-14.074 39.65-18.1 2.96-.99 5.957-2.123 8.854-3.22 4.55-1.722 9.254-3.503 14.096-4.837 4.705-1.295 9.507-2.052 14.156-2.784 1.95-.31 3.968-.625 5.932-.977l2.42-.432c9.045-1.614 18.396-3.283 27.49-5.402 5.562-1.294 11.364-1.597 17.314-1.817 3.675-.133 7.422-.4 11.05-.653 6.652-.47 13.533-.954 20.393-.685 10.116.394 19.398 1.588 28.37 3.648 7.95 1.824 16.115 3.192 23.054 4.284 5.6.885 10.858 2.67 15.948 4.39 1.795.61 3.648 1.238 5.476 1.812 16.243 5.1 31.783 12.336 46.312 19.31 13.238 6.354 24.878 15.36 34.595 26.768 3.604 4.233 8.03 7.967 13.934 11.752 7.04 4.515 13.194 10.188 20.58 18.974 7.634 9.078 13.756 19.218 19.68 29.023 3.31 5.483 6.73 11.152 10.354 16.522 4.26 6.31 6.825 13.75 9.304 20.942.837 2.425 1.7 4.93 2.606 7.326 3.775 9.953 7.233 19.935 11.043 31.01 5.21 15.158 8.567 27.81 10.568 39.82.77 4.626 1.04 9.356 1.304 13.927.146 2.58.3 5.25.54 7.84.95 10.17 1.5 20.662 1.674 32.072.098 6.588-.68 13.114-1.44 19.422-.356 2.995-.73 6.094-1 9.15-.818 9.19-2.21 16.6-4.38 23.303 0 .11.018.223.025.338.02.248.037.495.037.736h-3.608 3.607c-5.162 15.91-11.106 33.9-20.495 49.605-2.846 4.757-5.26 9.95-7.597 14.97-1.64 3.524-3.337 7.168-5.185 10.682-6.6 12.552-15.367 23.478-23.778 33.592-10.957 13.17-22.484 25.42-32.315 35.667-3.68 3.837-8.182 6.396-12.1 8.395-8.277 4.214-16.403 9.09-24.258 13.807-6.78 4.066-13.787 8.275-20.91 12.07-10.95 5.83-23.163 10.77-36.3 14.68-2.58.77-5.194 1.64-7.724 2.48-3.56 1.183-7.24 2.41-10.95 3.4-5.875 1.564-11.912 2.243-17.75 2.897-3.68.416-7.488.843-11.164 1.49-10.56 1.852-19.828 2.76-28.476 2.76m6.336-544.32c-5.35 0-10.742.38-15.99.75-3.662.257-7.456.523-11.206.66-5.714.212-11.272.5-16.437 1.704-9.213 2.147-18.626 3.826-27.73 5.45l-2.417.43c-2.012.36-4.05.683-6.025.994-4.522.71-9.198 1.447-13.654 2.676-4.633 1.274-9.233 3.018-13.687 4.703-2.94 1.112-5.98 2.263-9.03 3.283-11.798 3.933-24.15 9.574-38.868 17.756-16.963 9.426-32.903 20.594-47.375 33.188-5.824 5.076-11.338 11.468-16.86 19.543-3.376 4.937-6.608 10.125-9.733 15.142-2.615 4.198-5.318 8.54-8.11 12.745-9.568 14.395-18.008 30.254-25.083 47.14l-1.517 3.604c-3.676 8.73-7.477 17.76-10.618 26.808-4.412 12.72-6.373 25.727-8.308 40.183-.814 6.077-1.05 12.304-1.276 18.326-.17 4.534-.346 9.223-.77 13.858-.93 10.208-.43 21.387 1.524 34.183.3 1.96.578 3.92.857 5.88.95 6.684 1.93 13.59 3.724 20.147 5.113 18.73 11.616 36.427 19.328 52.596 9.257 19.393 20.77 37.706 30.835 53.35 6.842 10.627 13.845 20.124 21.408 29.025 6.507 7.656 14.28 14.05 23.768 19.54 4.067 2.355 8.128 4.84 12.056 7.248 4.28 2.622 8.707 5.335 13.127 7.863 3.767 2.154 7.51 4.446 11.133 6.663 9.47 5.8 19.26 11.793 29.954 15.597 3.835 1.368 7.628 2.973 11.293 4.522 6.61 2.798 13.445 5.692 20.55 7.144 2.936.602 5.975 1.073 8.915 1.53 1.803.278 3.606.558 5.403.865 2.875.498 5.774.683 8.843.88 3.04.197 6.18.398 9.306.93 7.647 1.293 15.583 1.54 23.26 1.778 4.636.143 9.428.293 14.15.668 10.933.864 22.564.12 36.604-2.345 3.814-.67 7.693-1.106 11.447-1.527 5.67-.636 11.534-1.297 17.076-2.773 3.58-.956 7.19-2.157 10.688-3.32 2.562-.852 5.213-1.73 7.86-2.52 12.845-3.825 24.773-8.648 35.454-14.336 7.015-3.736 13.97-7.914 20.7-11.95 7.923-4.76 16.115-9.677 24.54-13.964 3.572-1.82 7.66-4.137 10.863-7.477 9.776-10.19 21.236-22.367 32.1-35.427 8.255-9.923 16.847-20.628 23.237-32.783 1.797-3.416 3.47-7.007 5.086-10.48 2.388-5.13 4.855-10.43 7.823-15.394 9.084-15.195 14.798-31.65 19.857-47.226h-.02c0-.12-.012-.24-.022-.364-.044-.53-.1-1.25.158-2.043 2.073-6.39 3.41-13.5 4.198-22.383.28-3.122.655-6.256 1.02-9.29.773-6.44 1.5-12.52 1.407-18.8-.173-11.285-.714-21.66-1.652-31.708-.25-2.675-.406-5.384-.557-8.008-.254-4.45-.517-9.048-1.25-13.432-1.955-11.75-5.256-24.166-10.38-39.072-3.795-11.04-7.242-20.983-10.99-30.874-.936-2.46-1.81-5.003-2.657-7.458-2.382-6.91-4.844-14.054-8.76-19.862-3.69-5.47-7.148-11.19-10.485-16.718-5.826-9.655-11.856-19.64-19.258-28.438-7.068-8.41-12.914-13.81-19.54-18.062-6.296-4.035-11.05-8.053-14.96-12.646-9.294-10.913-20.42-19.524-33.077-25.598-14.376-6.902-29.748-14.06-45.698-19.07-1.876-.588-3.756-1.227-5.572-1.84-5.135-1.74-9.98-3.383-15.192-4.205-7.015-1.107-15.276-2.492-23.368-4.346-8.686-1.998-17.688-3.154-27.518-3.535-1.292-.05-2.593-.072-3.897-.072"/></defs><clipPath id="h"><use xlink:href="#g" overflow="visible"/></clipPath><g clip-path="url(#h)"><defs><path id="i" d="M154.37 143.062h549.398v552.146h-549.4z"/></defs><clipPath id="j"><use xlink:href="#i" overflow="visible"/></clipPath><path clip-path="url(#j)" fill="#231F20" d="M140.634 129.783h576.653v576.412H140.634z"/></g></g><defs><path id="k" d="M319.647 456.533l15.677-.138-25.464-126.862-16.08-1.342z"/></defs><clipPath id="l"><use xlink:href="#k" overflow="visible"/></clipPath><g clip-path="url(#l)"><defs><path id="m" d="M8.778-3136.847h2812.92v10342.43H8.778z"/></defs><clipPath id="n"><use xlink:href="#m" overflow="visible"/></clipPath><path clip-path="url(#n)" fill="#787260" d="M280.043 314.457h69.016v155.81H280.04z"/></g><defs><path id="o" d="M366.34 683.742l16.434 1.915-42.62-215.357-16.43 1.78z"/></defs><clipPath id="p"><use xlink:href="#o" overflow="visible"/></clipPath><g clip-path="url(#p)"><defs><path id="q" d="M8.778-3136.847h2812.92v10342.43H8.778z"/></defs><clipPath id="r"><use xlink:href="#q" overflow="visible"/></clipPath><path clip-path="url(#r)" fill="#787260" d="M309.99 456.565h86.52v242.827h-86.52z"/></g><defs><path id="s" d="M342.6 483.287s68.54 28.74 103.242 36.69c27.267 6.245 88.494 1.075 88.494 1.075h51.313s24.442-4.95 35.183-13.563c5.94-4.767 19.97 0 25.38-18.654 2.348-8.094-120.175-32.803-138.612-30.35-18.435 2.448-65.154-5.876-73.136-5.876-7.98 0-37.747 5.315-38.417 12.024-.676 6.71 4.203 19.08 1.486 17.826-33.788-15.54-38.187-12.74-56.164-10.21-5.548.778 1.23 11.037 1.23 11.037"/></defs><clipPath id="t"><use xlink:href="#s" overflow="visible"/></clipPath><g clip-path="url(#t)"><defs><path id="u" d="M8.778-3136.847h2812.92v10342.43H8.778z"/></defs><clipPath id="v"><use xlink:href="#u" overflow="visible"/></clipPath><path clip-path="url(#v)" fill="#ADADAD" d="M325.452 438.876h334.532v97.92H325.452z"/></g><defs><path id="w" d="M286.206 306.747s43.598-.926 57.75 0c14.154.925 24.89-.926 34.107 0 9.218.925 44.03-9.277 55.938-14.293 13.506-5.69 41.86 5.14 60.855 14.838 11.66 5.947 25.65 18.558 28.414 17.448 2.765-1.11 21.33 1.417 25.937 1.738 4.608.322 36.93 5.398 46.713 5.374 14.733-.035 26.728-2.245 31.7 24.88 3.086 16.834 27.03 44.286 27.857 60.008s-1.758 58.132-4.458 64.59c-3.328 7.942-31.32 9.987-42.975 11.405-15.106 1.84-37.94-18.364-55.76-17.75-13.358.464-56.51-6.14-77.937-7.134-21.2-.985-147.528 3.074-150.513 2.523-4.934-.906-14.08-14.233-4.078-13.77 9.994.463 89.93.012 95.175-2.378 5.25-2.39 12.412-26.24 12.412-29.938s-7.66-7.61-7.064-13.43c.558-5.445 2.834-5.02 3.138-22.595.302-17.573-6.035-24.076 2.26-42.065-6.452-2.73-50.382-18.977-73.43-17.93-23.042 1.045-62.552.952-63.013-2.166s-7.17-19.27-3.03-19.352"/></defs><clipPath id="x"><use xlink:href="#w" overflow="visible"/></clipPath><g clip-path="url(#x)"><defs><path id="y" d="M8.778-3136.847h2812.92v10342.43H8.778z"/></defs><clipPath id="z"><use xlink:href="#y" overflow="visible"/></clipPath><path clip-path="url(#z)" fill="#FFF" d="M271.13 277.145h398.238v229.443h-398.24z"/></g><defs><path id="A" d="M301.03 273.14c7.707-9.956 3.203-25.247-10.355-28.43-10.328-2.426-19.116 2.147-23.548 8.73-2.272 3.378-1.218 7.912-.623 12 1.325 9.15 8.062 14.28 14.942 18.532 3.007 1.86 4.756 3.914 5.01 6.583.52 5.397 2.737 10.59 1.96 16.12l12.51-.896c-2.048-7.66-1.978-15.72-4.4-23.333-.522-1.634-.218-3.493 1.252-4.934 1.293-1.277 2.168-2.972 3.252-4.375m-15.63-4.373c-4.627 0-8.377-3.203-8.377-7.155 0-3.95 3.75-7.154 8.378-7.154s8.377 3.203 8.377 7.154c0 3.95-3.748 7.155-8.375 7.155"/></defs><clipPath id="B"><use xlink:href="#A" overflow="visible"/></clipPath><g clip-path="url(#B)"><defs><path id="C" d="M8.778-3136.847h2812.92v10342.43H8.778z"/></defs><clipPath id="D"><use xlink:href="#C" overflow="visible"/></clipPath><path clip-path="url(#D)" fill="#787260" d="M251.997 230.317h66.523v90.092h-66.523z"/></g><defs><path id="E" d="M388.324 337.095l35.49 8.9s-3.924 24.786-3.313 32.493c.62 7.705 4.235 12.718.55 22.623-3.69 9.904-2.833 9.826-1.068 12.956 2.68 4.754 9.358 6.695 4.755 20.265-4.604 13.564-8.627 19.05-13.483 19.326-4.853.28-12.37 3.756-13.077-4.877-.71-8.634-5.818-14.026-5.818-18.036 0-4.007-.924-19.847-1.84-22.314-.923-2.466-1.425-6.718.11-19.074 1.535-12.36 3.568-26.437 2.3-32.604-1.262-6.166-4.605-19.657-4.605-19.657"/></defs><clipPath id="F"><use xlink:href="#E" overflow="visible"/></clipPath><g clip-path="url(#F)"><defs><path id="G" d="M8.778-3136.847h2812.92v10342.43H8.778z"/></defs><clipPath id="H"><use xlink:href="#G" overflow="visible"/></clipPath><path clip-path="url(#H)" fill="#ADADAD" d="M374.59 323.36h65.457v144.954H374.59z"/></g><defs><path id="I" d="M397.09 456.535c-.047 0-.093-.002-.14-.004-1.272-.076-2.238-1.17-2.163-2.446.078-1.28.037-2.507-.12-3.655-.186-1.36-.526-2.608-1.04-3.82-2.06-4.883-3.44-9.18-4.345-13.526-.61-2.922-.99-5.792-1.158-8.783-.038-.613-.07-1.335-.038-2.014.226-4.157-.478-8.262-1.282-12.455-.252-1.316-.445-2.69-.574-4.08-.606-6.625.287-13.177 1.153-19.516.494-3.62 1.003-7.364 1.207-11.004l.15-2.563c.432-7.26.84-14.116-.488-21.133l-.07-.338c-.297-1.325-.89-2.66-1.52-4.075-1.045-2.356-2.13-4.792-2.048-7.71.038-1.395-.402-1.84-1.282-2.203-.295-.126-.64-.236-1.103-.35l-1.93-.468c-1.235-.304-1.997-1.554-1.696-2.794.3-1.242 1.545-2.004 2.784-1.703l1.926.472c.713.174 1.287.356 1.802.577 2.763 1.154 4.188 3.435 4.104 6.595-.05 1.87.778 3.73 1.652 5.706.692 1.56 1.406 3.17 1.813 4.983l.086.427c1.44 7.605 1.015 14.74.57 22.295l-.15 2.546c-.215 3.824-.737 7.663-1.245 11.375-.87 6.357-1.69 12.36-1.126 18.46.11 1.24.283 2.46.505 3.63.862 4.485 1.613 8.9 1.36 13.57-.02.446.005 1.013.032 1.507.162 2.76.51 5.41 1.073 8.104.843 4.047 2.137 8.073 4.08 12.668.664 1.57 1.12 3.25 1.36 4.992.2 1.45.25 2.986.154 4.568-.07 1.224-1.083 2.17-2.295 2.17"/></defs><clipPath id="J"><use xlink:href="#I" overflow="visible"/></clipPath><g clip-path="url(#J)"><defs><path id="K" d="M8.778-3136.847h2812.92v10342.43H8.778z"/></defs><clipPath id="L"><use xlink:href="#K" overflow="visible"/></clipPath><path clip-path="url(#L)" fill="#231F20" d="M364.806 318.09h48.363v152.18h-48.365z"/></g><defs><path id="M" d="M556.125 347.158c-.377 0-.752-.09-1.105-.282-2.345-1.285-4.684-2.58-7.023-3.876-5.72-3.168-11.632-6.444-17.522-9.48-2.15-1.114-3.782-2.664-5.36-4.164-.794-.756-1.546-1.47-2.34-2.105-1.08-.873-2.07-1.45-3.116-1.814-9.303-3.25-16.978-9.18-24.4-14.918l-1.806-1.392c-7.487-5.762-16.664-8.98-24.655-11.366-12.425-3.713-25.548-4.47-40.126-2.32-10.092 1.493-19.984 4.52-29.55 7.442-4.26 1.3-8.66 2.648-13.05 3.85-5.273 1.443-10.577 2.21-15.762 2.277-7.125.084-14.32-.324-21.276-.72-8.533-.49-17.354-.996-25.992-.56l-4.04.2c-5.82.283-11.84.58-17.732 1.03-2.52.184-5.07.412-7.58.675-2.053.218-4.05-.02-5.557-.247-.435-.063-.856-.132-1.25-.197l-.04-.007c.128 1.06.364 1.953.654 3.028.38 1.418.814 3.024 1.09 5.396.247 2.19 1.14 5.596 1.785 6.468 1.89.79 5.204 1.446 8.76 1.73 1.2.097 2.405.145 3.585.145 1.05 0 3.79-.22 4.754-.303 1.417-.14 3.1.038 4.582.19.604.064 1.153.12 1.6.142 6.04.305 12.205.39 18.17.477 9.902.142 20.14.287 30.212 1.417 5.98.673 11.89 2.15 17.605 3.58l1.44.36c1.238.307 1.992 1.563 1.686 2.802-.31 1.24-1.56 1.99-2.794 1.688l-1.446-.363c-5.568-1.39-11.33-2.83-17.007-3.47-9.845-1.103-19.97-1.247-29.76-1.387-6.007-.086-12.218-.174-18.334-.48-.51-.027-1.15-.092-1.848-.164-1.208-.127-2.707-.28-3.688-.186-.397.035-3.737.322-5.175.322-1.3 0-2.63-.053-3.95-.16-4.303-.342-8.118-1.147-10.476-2.206-3.146-1.407-4.123-8.637-4.29-10.07-.23-2.03-.6-3.4-.954-4.72-.514-1.916-1.002-3.725-.903-6.748.027-.813.475-1.55 1.183-1.948 1.105-.614 2.374-.408 4.295-.094.373.06.77.124 1.188.185 1.245.19 2.862.384 4.4.22 2.556-.266 5.15-.496 7.714-.687 5.947-.456 12-.75 17.85-1.04l4.032-.197c8.886-.443 17.832.066 26.486.56 6.878.395 13.99.8 20.956.713 4.792-.062 9.71-.775 14.607-2.114 4.317-1.184 8.69-2.52 12.916-3.813 9.73-2.975 19.792-6.05 30.225-7.594 15.257-2.253 29.03-1.45 42.11 2.462 8.394 2.508 18.064 5.91 26.145 12.128l1.81 1.397c7.464 5.767 14.512 11.213 23.103 14.214 1.56.545 2.99 1.363 4.49 2.576.938.753 1.798 1.57 2.624 2.358 1.406 1.336 2.73 2.597 4.297 3.407 5.95 3.066 11.896 6.36 17.642 9.545 2.334 1.29 4.667 2.586 7.007 3.865 1.115.612 1.527 2.018.916 3.14-.418.768-1.207 1.203-2.022 1.203"/></defs><clipPath id="N"><use xlink:href="#M" overflow="visible"/></clipPath><g clip-path="url(#N)"><defs><path id="O" d="M8.778-3136.847h2812.92v10342.43H8.778z"/></defs><clipPath id="P"><use xlink:href="#O" overflow="visible"/></clipPath><path clip-path="url(#P)" fill="#231F20" d="M268.398 275.886h303.77v85.006h-303.77z"/></g><defs><path id="Q" d="M288.53 309.06c-.106 0-.216-.01-.324-.025-1.26-.177-2.138-1.347-1.96-2.61.436-3.125-.224-6.226-.92-9.51-.42-1.956-.852-3.98-1.053-6.065-.112-1.194-.663-2.82-3.927-4.84-7.468-4.613-14.577-10.25-16.015-20.167-.06-.438-.13-.882-.202-1.33-.623-4-1.33-8.532 1.202-12.295 5.573-8.28 15.77-12.08 25.98-9.687 7.037 1.65 12.407 6.376 14.73 12.956 2.302 6.52 1.153 13.68-3.08 19.146-.35.454-.69.964-1.05 1.5-.667 1-1.423 2.136-2.41 3.107s-.843 2.032-.67 2.577c1.37 4.303 1.973 8.72 2.558 12.987.5 3.635.97 7.07 1.873 10.45.335 1.235-.395 2.5-1.624 2.832-1.23.33-2.495-.4-2.825-1.634-.98-3.662-1.49-7.4-1.987-11.018-.582-4.263-1.135-8.287-2.382-12.208-.836-2.62-.15-5.344 1.835-7.292.646-.636 1.21-1.48 1.808-2.374.386-.582.79-1.183 1.24-1.765 3.26-4.214 4.146-9.732 2.37-14.762-1.786-5.067-5.955-8.71-11.432-9.997-10.123-2.377-17.7 2.7-21.11 7.774-1.52 2.253-.983 5.68-.468 8.99.076.463.146.924.213 1.38 1.1 7.592 6.34 12.244 13.872 16.896 3.788 2.347 5.783 5.073 6.095 8.332.177 1.822.563 3.63.97 5.545.752 3.533 1.53 7.187.977 11.12-.16 1.155-1.147 1.99-2.277 1.99"/></defs><clipPath id="R"><use xlink:href="#Q" overflow="visible"/></clipPath><g clip-path="url(#R)"><defs><path id="S" d="M8.778-3136.847h2812.92v10342.43H8.778z"/></defs><clipPath id="T"><use xlink:href="#S" overflow="visible"/></clipPath><path clip-path="url(#T)" fill="#231F20" d="M249.803 228.087h71.137v94.707h-71.137z"/></g><defs><path id="U" d="M608.136 495.048h-.093c-3.406-.01-7.597-1.782-10.374-2.953-.688-.293-1.26-.538-1.66-.68-5.853-2.065-10.168-3.868-13.635-5.32-3.895-1.628-6.97-2.915-10.43-3.84-6.42-1.718-12.232-3.196-18.36-3.934-7.248-.872-14.866-1.007-22.046-1.07-10.605-.09-21.82-1.41-35.295-4.15-12.117-2.474-24.597-3.27-36.27-3.757-10.145-.432-20.545.055-30.603.52-4.554.21-9.266.43-13.903.563-3.98.112-7.963.19-11.944.27-2.45.047-4.896.095-7.342.15l-1.725.038c-1.954.052-3.923-.046-5.825-.137-4.037-.19-7.852-.37-11.347.71-3.014.938-5.224.72-7.36.513l-.74-.07c-.59-.056-1.295-.108-2.07-.123l-.67-.014c-1.73-.028-4.347-.08-5.736.07-1.314.147-2.667.246-4.134.31-2.808.117-5.63.07-8.367.03-3.127-.048-6.37-.098-9.496.105-1.99.13-4.083.7-5.934 1.204l-.092.024c-1.982.537-4.035 1.095-6.084 1.255-.282.026-.57-.005-.842-.09-.488-.146-.966-.303-1.438-.46-5.8-1.948-13.236-5.72-11.047-15.924.13-1.773 1.866-3.05 5.17-3.8.42-.088.768-.15 1.036-.182l1.497-.164c4.662-.513 9.486-1.042 14.37-.85 2.22.087 4.296.31 6.343.69 11.224 2.068 22.834 1.1 34.06.164 6.24-.52 12.695-1.058 19.085-1.086 1.187-.006 2.378.01 3.575.028 1.835.027 3.733.052 5.582-.007 3.587-.11 6.44-.53 8.99-1.333 1.974-.616 2.62-.877 2.978-1.65 2.09-4.527 4.146-9.177 6.137-13.67l1.47-3.32c3-6.745 2.828-7.73-2.255-13.16-.137-.148-.263-.272-.39-.396-.172-.17-.343-.337-.504-.513-1.174-1.27-1.963-2.218-2.553-3.084-.72-1.055-.452-2.493.6-3.214 1.05-.725 2.484-.455 3.203.6.456.67 1.11 1.456 2.122 2.55.11.116.228.232.35.35.184.183.372.365.55.56 6.298 6.73 6.818 9.79 3.09 18.187l-1.47 3.315c-1.997 4.513-4.062 9.18-6.17 13.738-1.24 2.7-3.62 3.445-5.72 4.104-3.02.948-6.272 1.438-10.285 1.562-1.95.06-3.9.03-5.79.007-1.17-.018-2.328-.034-3.487-.028-6.21.028-12.57.558-18.722 1.07-11.526.96-23.448 1.955-35.278-.227-1.83-.338-3.688-.538-5.685-.613-4.552-.18-8.99.308-13.692.823l-1.478.16c-.13.017-.333.057-.566.105-.71.162-1.34.384-1.72.556-1.003 5.156 1.234 7.97 8.075 10.265.29.098.577.193.87.284 1.504-.17 3.122-.606 4.822-1.068l.09-.027c2.053-.558 4.382-1.193 6.836-1.354 3.315-.214 6.647-.16 9.87-.112 2.666.04 5.426.085 8.104-.03 1.363-.055 2.607-.147 3.82-.282 1.685-.185 4.367-.134 6.326-.096l.657.01c.926.015 1.742.08 2.415.14l.77.076c1.99.193 3.426.334 5.553-.327 4.268-1.32 8.67-1.114 12.924-.913 1.905.09 3.708.18 5.5.135l1.728-.04c2.453-.058 4.905-.103 7.356-.15 3.968-.08 7.936-.16 11.903-.27 4.596-.13 9.285-.35 13.82-.56 10.156-.47 20.66-.958 31.007-.52 11.867.498 24.562 1.308 36.995 3.844 13.18 2.685 24.114 3.973 34.416 4.063 7.31.06 15.074.197 22.56 1.1 6.422.774 12.4 2.295 18.992 4.056 3.762 1.01 6.965 2.345 11.016 4.04 3.595 1.502 7.663 3.205 13.392 5.226.5.176 1.126.442 1.923.78 2.287.966 6.114 2.586 8.588 2.592h.09c5.6 0 9.96-.755 14.556-2.52 5.597-2.442 11.798-2.45 16.78-2.458 2.308-.004 4.3-.007 5.83-.236.708-.103 1.92-.356 2.122-.87 4.257-10.853 6.31-19.943 6.27-27.782-.027-5.792-.072-7.598-.957-14.614-.718-5.68-.49-11.866.71-19.468.855-5.38-2.092-11.05-4.946-16.53-.923-1.772-1.792-3.445-2.55-5.127-1.144-2.534-2.306-4.648-3.427-6.69-1.935-3.53-3.762-6.86-5.4-11.95-.717-2.23-1.403-3.79-2.063-5.298-.252-.572-.5-1.135-.74-1.714-1.47-3.544-2.916-6.16-5.95-9.036-2.963-2.816-3.025-7.047-3.074-10.45l-.007-.487c-.07-3.86-.41-8.364-2.406-12.482-2.856-5.896-7.055-8.56-13.616-8.638-3.523-.035-6.485.003-9.35.045-4.58.062-8.906.12-14.658-.155-1.518-.048-5.35-.31-8.358-1.68-8.086-3.685-14.68-3.605-22.316-3.508-5.02.058-10.205.125-16.21-.905-1.142-.193-2.1-.547-3.026-.888-2.297-.85-4.282-1.58-9.222.303-1.193.457-2.52-.145-2.975-1.34-.45-1.192.148-2.528 1.337-2.984 6.55-2.495 9.823-1.29 12.45-.32.796.293 1.488.548 2.21.672 5.593.96 10.566.896 15.38.837 7.844-.097 15.255-.19 24.276 3.925 1.84.837 4.61 1.202 6.59 1.263.015.003.08.005.1.005 5.598.27 9.853.212 14.358.15 2.895-.04 5.886-.08 9.47-.045 8.3.1 14.095 3.774 17.708 11.24 2.386 4.928 2.79 10.057 2.867 14.424l.01.502c.04 2.79.08 5.68 1.63 7.154 3.62 3.428 5.375 6.602 7.04 10.615.23.552.464 1.085.705 1.63.676 1.542 1.442 3.29 2.23 5.744 1.503 4.664 3.228 7.805 5.055 11.134 1.164 2.124 2.365 4.318 3.586 7.015.705 1.565 1.546 3.18 2.436 4.892 3.05 5.865 6.51 12.51 5.41 19.4-1.128 7.155-1.345 12.926-.686 18.16.915 7.262.965 9.28.993 15.17.04 8.438-2.116 18.088-6.59 29.5-1.214 3.077-4.61 3.583-5.73 3.75-1.863.28-4.118.284-6.506.288-4.81.004-10.26.013-14.987 2.092-.035.014-.067.026-.1.037-5.106 1.964-10.126 2.842-16.262 2.842"/></defs><clipPath id="V"><use xlink:href="#U" overflow="visible"/></clipPath><g clip-path="url(#V)"><defs><path id="W" d="M8.778-3136.847h2812.92v10342.43H8.778z"/></defs><clipPath id="X"><use xlink:href="#W" overflow="visible"/></clipPath><path clip-path="url(#X)" fill="#231F20" d="M299.152 307.748H672.04v201.035H299.152z"/></g><defs><path id="Y" d="M419.763 416.945c-.725 0-1.444-.345-1.89-.986-.38-.553-.687-1.078-.936-1.61-.537-1.16-.035-2.536 1.118-3.073 1.154-.54 2.524-.035 3.06 1.12.133.285.31.59.536.91.73 1.047.477 2.486-.57 3.22-.4.28-.86.417-1.316.417"/></defs><clipPath id="Z"><use xlink:href="#Y" overflow="visible"/></clipPath><g clip-path="url(#Z)"><defs><path id="aa" d="M8.778-3136.847h2812.92v10342.43H8.778z"/></defs><clipPath id="ab"><use xlink:href="#aa" overflow="visible"/></clipPath><path clip-path="url(#ab)" fill="#231F20" d="M402.987 397.325H435.8v33.355h-32.813z"/></g><defs><path id="ac" d="M419.02 415.672c-.87 0-1.705-.5-2.092-1.344-1.54-3.333-.45-6.24 1.95-10.136 1.988-3.217 2.753-6.44 2.558-10.787-.162-3.533-.37-6.99-1.095-10.435-1.49-7.104-1.764-14.393-.81-21.66.688-5.23 2.028-10.585 3.988-15.918.44-1.197 1.765-1.813 2.96-1.368 1.194.442 1.804 1.77 1.363 2.97-1.84 5.008-3.1 10.027-3.74 14.92-.884 6.747-.632 13.51.753 20.1.794 3.783 1.014 7.448 1.187 11.18.237 5.28-.764 9.423-3.242 13.433-2.308 3.743-2.157 4.746-1.69 5.758.537 1.158.033 2.534-1.12 3.07-.314.147-.644.217-.967.217"/></defs><clipPath id="ad"><use xlink:href="#ac" overflow="visible"/></clipPath><g clip-path="url(#ad)"><defs><path id="ae" d="M8.778-3136.847h2812.92v10342.43H8.778z"/></defs><clipPath id="af"><use xlink:href="#ae" overflow="visible"/></clipPath><path clip-path="url(#af)" fill="#231F20" d="M402.48 330.145h39.24v99.263h-39.24z"/></g><defs><path id="ag" d="M367.038 685.676c-1.017 0-1.948-.68-2.224-1.71-.193-.72-.39-1.44-.585-2.158l-.337-1.233c-2.66-9.792-5.972-21.99-7.962-33.66-2.102-12.345-4.296-24.886-6.424-37.012l-.27-1.553c-.446-2.532-.892-5.062-1.33-7.598-.532-3.025-1.087-6.052-1.646-9.074-1.13-6.142-2.3-12.49-3.216-18.79-1.553-10.633-3.396-21.976-6.358-32.86-3.76-13.883-7.63-28.694-10.05-43.775-.326-2.036-.89-4.02-1.437-5.877l-.22-.74c-.573-1.948-1.166-3.96-1.573-6.036-.74-3.767-1.572-7.246-2.546-10.643-.35-1.227.355-2.508 1.578-2.862 1.225-.35 2.5.356 2.85 1.583 1.012 3.524 1.874 7.13 2.64 11.028.366 1.863.902 3.688 1.47 5.616l.22.744c.564 1.91 1.2 4.146 1.567 6.45 2.382 14.86 6.218 29.536 9.947 43.296 3.023 11.122 4.896 22.63 6.467 33.41.904 6.21 2.07 12.517 3.19 18.616.56 3.036 1.122 6.073 1.652 9.118.443 2.535.886 5.062 1.33 7.592l.272 1.557c2.127 12.13 4.327 24.674 6.43 37.03 1.95 11.45 5.23 23.528 7.868 33.235l.33 1.215c.2.724.397 1.45.59 2.175.333 1.234-.397 2.504-1.625 2.836-.198.053-.402.08-.6.08"/></defs><clipPath id="ah"><use xlink:href="#ag" overflow="visible"/></clipPath><g clip-path="url(#ah)"><defs><path id="ai" d="M8.778-3136.847h2812.92v10342.43H8.778z"/></defs><clipPath id="aj"><use xlink:href="#ai" overflow="visible"/></clipPath><path clip-path="url(#aj)" fill="#231F20" d="M307.04 456.27h76.04v243.142h-76.04z"/></g><g><defs><path id="ak" d="M342.1 483.39c-.928 0-1.802-.567-2.15-1.49-1.025-2.693-1.804-6.277-1.986-9.134-.062-.904-.062-1.773.002-2.575.1-1.272 1.215-2.217 2.48-2.12 1.267.103 2.217 1.215 2.115 2.486-.043.57-.043 1.227 0 1.902.18 2.776.98 5.916 1.695 7.796.454 1.193-.145 2.53-1.333 2.986-.27.1-.546.15-.82.15"/></defs><clipPath id="al"><use xlink:href="#ak" overflow="visible"/></clipPath><g clip-path="url(#al)"><defs><path id="am" d="M8.778-3136.847h2812.92v10342.43H8.778z"/></defs><clipPath id="an"><use xlink:href="#am" overflow="visible"/></clipPath><path clip-path="url(#an)" fill="#231F20" d="M324.183 454.325h33.96v42.798h-33.96z"/></g></g><g><defs><path id="ao" d="M579.973 523.365c-1.45 0-2.763-.094-4.028-.188-1.865-.133-3.788-.276-6.343-.13-3.028.17-6.722.053-10.296-.063-3.27-.106-6.658-.217-9.314-.088-6.534.313-8.997.077-10.977-.11-1.566-.15-2.7-.257-5.553-.045-3.61.275-7.807.133-11.868 0-3.39-.113-6.594-.22-9.415-.103-6.468.265-13.958.024-21.883-.233-9.42-.304-19.164-.62-26.884 0-6.59.533-14.007.15-22.046-1.14-4.035-.646-8.145-1.51-12.228-2.576-10.437-2.714-18.716-5.74-26.05-9.522-1.02-.53-2.01-1.066-2.978-1.607-4.79-2.7-9.735-4.396-14.97-6.19-1.614-.556-3.234-1.11-4.852-1.698-2.767-.994-5.41-2.358-7.963-3.68-2.248-1.16-4.577-2.36-6.905-3.256-1.787-.688-3.66-1.297-5.473-1.883-1.708-.552-3.467-1.124-5.2-1.772-.48-.18-.967-.344-1.455-.504-.925-.31-1.886-.633-2.828-1.07-.52-.24-1.446-.534-2.34-.816-1.066-.337-2.07-.656-2.848-1.013-.296-.135-.66-.26-1.044-.393-1.08-.368-2.422-.83-3.41-1.936-.35-.373-.654-.86-.872-1.413-.467-1.187.115-2.532 1.3-2.998 1.182-.467 2.522.112 2.99 1.3.198.234.97.497 1.48.674.478.165.975.334 1.47.564.52.235 1.434.525 2.324.808 1.072.34 2.092.66 2.878 1.023.716.334 1.516.602 2.358.884.542.18 1.084.36 1.612.562 1.628.61 3.342 1.164 4.998 1.7 1.87.61 3.804 1.234 5.703 1.967 2.566.983 5.005 2.245 7.366 3.466 2.535 1.307 4.928 2.543 7.42 3.44 1.596.578 3.19 1.125 4.78 1.67 5.2 1.784 10.575 3.627 15.73 6.532.92.52 1.867 1.024 2.837 1.526 7.02 3.624 14.997 6.538 25.095 9.164 3.938 1.025 7.908 1.862 11.794 2.484 7.68 1.23 14.73 1.602 20.95 1.098 7.98-.642 17.852-.325 27.4-.015 7.844.252 15.247.49 21.546.235 2.987-.124 6.43-.01 9.76.1 3.935.132 8.003.265 11.365.013 3.25-.243 4.68-.104 6.34.055 1.83.174 4.106.392 10.314.093 2.843-.136 6.323-.022 9.687.088 3.473.112 7.06.228 9.884.066 2.85-.167 5.022-.007 6.938.136 1.242.09 2.415.175 3.696.175 1.146 0 2.29-.07 3.51-.217 3.996-.49 6.855-1.06 10.435-1.875 1.293-.295 2.683-.625 4.25-1l1.42-.338c.567-.135 2.705-1.108 3.853-1.635l.618-.278c.466-.212.87-.395 1.16-.516 2.632-1.11 4.71-2.252 6.903-3.462 1.602-.88 3.258-1.792 5.205-2.73.71-.344 1.438-.668 2.15-.96 3.357-1.375 5.847-1.776 8.044-2.134 3.073-.5 5.498-.89 9.758-3.884.525-.368 1.577-1.38 2.978-3.13 1.363-1.7 4.786-6.3 7.177-12.26.07-.178.14-.344.203-.516.456-1.19 1.79-1.79 2.978-1.33 1.19.455 1.78 1.794 1.328 2.985-.078.2-.155.395-.236.597-2.617 6.522-6.364 11.56-7.854 13.42-1.056 1.318-2.593 3.086-3.933 4.022-5.12 3.597-8.3 4.114-11.665 4.66-2.05.33-4.168.675-7.036 1.847-.628.257-1.265.543-1.895.847-1.84.89-3.438 1.768-4.988 2.62-2.202 1.213-4.48 2.47-7.337 3.67-.265.113-.624.277-1.043.467l-.546.25c-2.227 1.014-3.83 1.73-4.76 1.95l-1.415.338c-1.582.376-2.99.712-4.292 1.01-3.728.847-6.71 1.44-10.907 1.955-1.4.17-2.73.252-4.06.252"/></defs><clipPath id="ap"><use xlink:href="#ao" overflow="visible"/></clipPath><g clip-path="url(#ap)"><defs><path id="aq" d="M8.778-3136.847h2812.92v10342.43H8.778z"/></defs><clipPath id="ar"><use xlink:href="#aq" overflow="visible"/></clipPath><path clip-path="url(#ar)" fill="#231F20" d="M326.06 465.034h339.767V537.1H326.06z"/></g></g><g><defs><path id="as" d="M382.88 686.054c-.997 0-1.917-.657-2.21-1.67-3.942-13.654-8.76-33.445-10.45-48.025-.41-3.545-.824-7.084-1.264-10.616-1.19-9.593-2.77-20.916-5.454-32.138l-.762-3.185c-1.888-7.89-3.847-16.043-5.35-24.23-.512-2.776-.95-5.612-1.37-8.357-1.006-6.54-2.047-13.3-4.177-19.576-.36-1.068-.697-2.145-1-3.2-1.635-5.566-2.697-11.293-3.727-16.824l-.435-2.322c-.82-4.366-1.784-8.8-2.72-13.085-.48-2.197-.96-4.396-1.42-6.597-.356-1.69-1.24-6.46-2.36-12.772l-.35-1.978c-.004-.016-.004-.035-.007-.054-.587-3.308-1.13-6.445-1.492-8.59-.146-.896-.267-1.615-.345-2.104-.196-1.264.665-2.445 1.92-2.642 1.26-.196 2.437.665 2.635 1.926.074.476.19 1.18.337 2.05.36 2.14.906 5.29 1.492 8.606.003.02.003.043.01.06l.336 1.91c1.113 6.268 1.985 10.986 2.33 12.628.46 2.192.938 4.382 1.416 6.567.942 4.32 1.916 8.782 2.747 13.215l.437 2.33c1.005 5.423 2.05 11.026 3.62 16.38.29 1.002.605 2.008.94 3.006 2.262 6.66 3.33 13.624 4.368 20.36.416 2.71.848 5.51 1.346 8.226 1.484 8.063 3.424 16.156 5.3 23.988l.764 3.186c2.733 11.444 4.338 22.924 5.545 32.645.44 3.55.857 7.098 1.27 10.65 1.656 14.303 6.404 33.796 10.296 47.276.354 1.228-.35 2.51-1.572 2.862-.214.065-.43.094-.644.094"/></defs><clipPath id="at"><use xlink:href="#as" overflow="visible"/></clipPath><g clip-path="url(#at)"><defs><path id="au" d="M8.778-3136.847h2812.92v10342.43H8.778z"/></defs><clipPath id="av"><use xlink:href="#au" overflow="visible"/></clipPath><path clip-path="url(#av)" fill="#231F20" d="M324.223 454.325h74.7V699.79h-74.7z"/></g></g><g><defs><path id="aw" d="M318.9 458.778c-1.072 0-2.032-.754-2.252-1.85-.21-1.023-.306-2.013-.394-2.972-.078-.86-.156-1.676-.31-2.465-2.606-13.37-5.503-27.65-9.04-41.54-1.023-4.035-1.707-8.18-2.37-12.187-.273-1.666-.547-3.33-.848-4.99-1.508-8.37-2.997-16.742-4.47-25.112-.472-2.66-.912-5.335-1.352-8.004-.204-1.26.644-2.452 1.9-2.658 1.254-.207 2.442.646 2.65 1.907.434 2.65.873 5.304 1.34 7.95 1.473 8.37 2.962 16.733 4.467 25.098.305 1.68.584 3.366.863 5.057.644 3.907 1.31 7.953 2.29 11.8 3.564 13.995 6.475 28.357 9.09 41.793.2 1.013.295 1.984.38 2.923.082.872.16 1.696.318 2.475.258 1.253-.547 2.478-1.79 2.73-.16.034-.31.05-.468.05"/></defs><clipPath id="ax"><use xlink:href="#aw" overflow="visible"/></clipPath><g clip-path="url(#ax)"><defs><path id="ay" d="M8.778-3136.847h2812.92v10342.43H8.778z"/></defs><clipPath id="az"><use xlink:href="#ay" overflow="visible"/></clipPath><path clip-path="url(#az)" fill="#231F20" d="M284.1 343.233h50.844v129.28H284.1z"/></g></g><g><defs><path id="aA" d="M300.136 361.587c-1.108 0-2.084-.805-2.272-1.937l-.282-1.725c-1.566-9.61-3.19-19.543-5.91-29.023-.348-1.226.355-2.508 1.578-2.862 1.23-.35 2.503.357 2.854 1.583 2.795 9.743 4.437 19.816 6.028 29.554l.282 1.723c.204 1.26-.644 2.45-1.9 2.66-.128.017-.254.027-.378.027"/></defs><clipPath id="aB"><use xlink:href="#aA" overflow="visible"/></clipPath><g clip-path="url(#aB)"><defs><path id="aC" d="M8.778-3136.847h2812.92v10342.43H8.778z"/></defs><clipPath id="aD"><use xlink:href="#aC" overflow="visible"/></clipPath><path clip-path="url(#aD)" fill="#231F20" d="M277.85 312.214h38.33v63.108h-38.33z"/></g></g><g><defs><path id="aE" d="M335.43 456.986c-1.102 0-2.075-.8-2.268-1.93-.66-3.913-1.46-7.89-2.235-11.74-.502-2.487-1-4.974-1.467-7.467-.682-3.605-1.38-7.2-2.076-10.8-2.25-11.596-4.577-23.585-6.237-35.514-.7-5.02-1.848-10.062-2.96-14.942-.51-2.24-1.04-4.56-1.522-6.86-.42-2-.815-4.007-1.21-6.013-1.237-6.255-2.514-12.726-4.51-18.86-.268-.832-.555-1.662-.842-2.49-.25-.722-.5-1.45-.74-2.176-.8-2.45-1.625-5.376-1.696-8.54-.026-1.28.985-2.332 2.256-2.362 1.28-.06 2.326.987 2.353 2.264.054 2.557.772 5.07 1.465 7.192.233.7.474 1.402.72 2.107.296.858.59 1.714.87 2.573 2.083 6.396 3.386 13.002 4.647 19.393.392 1.99.784 3.98 1.202 5.96.47 2.263.997 4.56 1.5 6.784 1.136 4.973 2.308 10.116 3.035 15.333 1.642 11.805 3.957 23.732 6.194 35.264.696 3.61 1.4 7.215 2.08 10.825.465 2.477.96 4.944 1.46 7.413.778 3.885 1.588 7.898 2.26 11.887.214 1.26-.634 2.452-1.887 2.667-.133.022-.262.032-.39.032"/></defs><clipPath id="aF"><use xlink:href="#aE" overflow="visible"/></clipPath><g clip-path="url(#aF)"><defs><path id="aG" d="M8.778-3136.847h2812.92v10342.43H8.778z"/></defs><clipPath id="aH"><use xlink:href="#aG" overflow="visible"/></clipPath><path clip-path="url(#aH)" fill="#231F20" d="M293.932 313.555h57.542V470.72h-57.542z"/></g></g><g><defs><path id="aI" d="M435.95 352.99c-.618 0-1.23-.247-1.686-.738-2.592-2.785-3.287-3.01-4.97-3.557l-.37-.118c-1.204-.386-2.45-.767-3.7-1.124-5.933-1.703-11.95-2.953-16.53-3.855-4.73-.934-9.48-2.17-14.08-3.367-1.77-.46-3.538-.92-5.306-1.363-.587-.147-2.51-.682-4.475-1.226l-1.228-.34c-1.427-.4-2.726-.756-3.354-.925l-.26-.067c-1.235-.298-1.997-1.545-1.7-2.787.3-1.24 1.544-2.003 2.78-1.71l.384.1c.623.165 1.937.53 3.38.93l1.23.34c1.92.536 3.795 1.056 4.367 1.2 1.777.446 3.558.91 5.34 1.375 4.53 1.18 9.22 2.398 13.81 3.305 4.67.92 10.816 2.196 16.91 3.948 1.294.367 2.592.762 3.855 1.17l.362.117c2.312.75 3.673 1.3 6.927 4.804.868.932.818 2.394-.112 3.266-.445.416-1.008.623-1.57.623"/></defs><clipPath id="aJ"><use xlink:href="#aI" overflow="visible"/></clipPath><g clip-path="url(#aJ)"><defs><path id="aK" d="M8.778-3136.847h2812.92v10342.43H8.778z"/></defs><clipPath id="aL"><use xlink:href="#aK" overflow="visible"/></clipPath><path clip-path="url(#aL)" fill="#231F20" d="M364.49 318.01h87.5v48.714h-87.5z"/></g></g><g><defs><path id="aM" d="M397.53 484.772c-.517 0-1.037-.174-1.47-.53-2.845-2.372-6.466-3.965-10.19-4.483-.24-.04-.45-.06-.66-.085-3.662-.384-8.456-2.68-11.83-4.542-2.51-1.38-4.402-2.604-5.304-3.21-1.057-.71-1.34-2.15-.63-3.21.708-1.06 2.14-1.343 3.197-.632 1.427.96 3.23 2.053 4.952 3 4.25 2.34 7.83 3.758 10.087 3.996.28.028.563.062.85.105 4.534.63 8.974 2.587 12.472 5.5.98.816 1.116 2.27.3 3.258-.455.548-1.11.832-1.773.832"/></defs><clipPath id="aN"><use xlink:href="#aM" overflow="visible"/></clipPath><g clip-path="url(#aN)"><defs><path id="aO" d="M8.778-3136.847h2812.92v10342.43H8.778z"/></defs><clipPath id="aP"><use xlink:href="#aO" overflow="visible"/></clipPath><path clip-path="url(#aP)" fill="#231F20" d="M353.32 453.955h60.25v44.554h-60.25z"/></g></g><g><defs><path id="aQ" d="M397.53 484.772c-.3 0-.603-.06-.898-.183-1.172-.5-1.72-1.858-1.22-3.035.528-1.245.072-3.43-.37-5.54-.2-.963-.407-1.958-.54-2.937-.172-1.268.71-2.432 1.974-2.607 1.255-.17 2.42.72 2.592 1.98.112.82.295 1.694.488 2.617.584 2.808 1.19 5.71.097 8.293-.37.882-1.223 1.41-2.122 1.41"/></defs><clipPath id="aR"><use xlink:href="#aQ" overflow="visible"/></clipPath><g clip-path="url(#aR)"><defs><path id="aS" d="M8.778-3136.847h2812.92v10342.43H8.778z"/></defs><clipPath id="aT"><use xlink:href="#aS" overflow="visible"/></clipPath><path clip-path="url(#aT)" fill="#231F20" d="M380.746 456.72h33.25v41.79h-33.25z"/></g></g><g><defs><path id="aU" d="M396.774 475.03c-1.14 0-2.13-.85-2.282-2.01-.22-1.67-.175-2.99.14-4.158.332-1.233 1.595-1.964 2.827-1.63 1.227.33 1.95 1.6 1.624 2.832-.15.555-.156 1.322-.022 2.35.167 1.267-.724 2.427-1.985 2.597-.102.01-.204.02-.304.02"/></defs><clipPath id="aV"><use xlink:href="#aU" overflow="visible"/></clipPath><g clip-path="url(#aV)"><defs><path id="aW" d="M8.778-3136.847h2812.92v10342.43H8.778z"/></defs><clipPath id="aX"><use xlink:href="#aW" overflow="visible"/></clipPath><path clip-path="url(#aX)" fill="#231F20" d="M380.623 453.415h32.275v35.35h-32.275z"/></g></g><g><defs><path id="aY" d="M285.336 271.08c-.217 0-.435-.004-.655-.004l-.63-.005h-.103l-.45.004c-2.448.02-4.988.02-7.287-2.717-2.216-2.637-1.95-6.714-.538-9.376.612-1.152 1.24-2.35 2.635-3.4.875-.662 1.926-1.433 3.082-2.132 1.48-.894 2.707-.944 3.813-.86.164.01.36.03.568.047l.1.01c3.418.376 5.978 1.543 8.097 3.682 2.72 2.75 3.305 7.066 1.39 10.266-2.457 4.104-6.293 4.466-9.695 4.485-.107.002-.22.002-.327.002zm-1.287-4.63h.663c.306.004.612.004.917 0 3.078-.015 4.64-.342 5.774-2.24.82-1.367.51-3.398-.708-4.626-1.35-1.366-2.983-2.087-5.29-2.34l-.064-.004c-.16-.016-.317-.03-.456-.04-.596-.046-.746-.016-1.12.21-.973.586-1.906 1.27-2.684 1.86-.553.417-.82.905-1.336 1.88-.652 1.23-.815 3.266-.01 4.227.872 1.038 1.545 1.092 3.742 1.073h.57z"/></defs><clipPath id="aZ"><use xlink:href="#aY" overflow="visible"/></clipPath><g clip-path="url(#aZ)"><defs><path id="ba" d="M8.778-3136.847h2812.92v10342.43H8.778z"/></defs><clipPath id="bb"><use xlink:href="#ba" overflow="visible"/></clipPath><path clip-path="url(#bb)" fill="#231F20" d="M260.847 238.823h49.368v45.99h-49.368z"/></g></g><g><defs><path id="bc" d="M286.27 271.08h-.016l-.614-.004c-.247-.005-.464-.01-.667-.003h-1.025c-2.39 0-4.71-.21-6.814-2.72-2.213-2.637-1.945-6.712-.536-9.374.61-1.155 1.24-2.35 2.634-3.403.875-.662 1.93-1.435 3.08-2.132.837-.505 1.634-.775 2.51-.856.548-.063 1.318-.017 2 .055 3.394.373 5.953 1.542 8.072 3.678 2.72 2.75 3.305 7.068 1.39 10.27-2.685 4.477-7.09 4.485-10.014 4.485m-.794-13.9c-.067 0-.13.003-.193.01-.158.014-.3.04-.593.218-.974.587-1.902 1.27-2.688 1.864-.547.413-.818.902-1.333 1.873-.654 1.234-.818 3.27-.013 4.23.794.947 1.38 1.073 3.29 1.073h1.024c.24 0 .484 0 .725.005h.558c3.337 0 4.918-.31 6.077-2.242.82-1.365.508-3.4-.71-4.625-1.35-1.365-2.983-2.087-5.29-2.342-.312-.033-.594-.062-.854-.062"/></defs><clipPath id="bd"><use xlink:href="#bc" overflow="visible"/></clipPath><g clip-path="url(#bd)"><defs><path id="be" d="M8.778-3136.847h2812.92v10342.43H8.778z"/></defs><clipPath id="bf"><use xlink:href="#be" overflow="visible"/></clipPath><path clip-path="url(#bf)" fill="#231F20" d="M261.77 238.826h49.368v45.988H261.77z"/></g></g></svg>